<svg width="80" height="80" viewBox="0 0 80 80" fill="none" xmlns="http://www.w3.org/2000/svg">
<rect width="80" height="80" fill="white"/>
<path d="M67.5674 41.6196C69.7967 45.0677 62.7814 46.0084 60.8122 50.0793C59.3445 53.1492 70.1497 55.1116 63.6846 60.039C57.2195 64.9663 49.6212 54.1328 44.1964 55.0448C38.7717 55.9569 40.8153 64.7884 34.2573 63.9431C30.5 63.4587 31.8814 59.0416 27.85 57.0395C23.8372 55.0374 13.0029 59.2674 12.0381 51.2742C11.3689 45.7295 19.7018 48.3279 21.8569 43.9901C23.919 39.8746 19.3597 32.7663 25.3528 31.8088C32.2452 30.7077 32.288 40.4851 38.1586 40.6742C44.0292 40.8633 42.3334 30.4901 46.8282 31.0196C50.4014 31.4406 48.3265 36.159 50.8236 39.639C53.3208 43.1191 64.9402 37.5561 67.5674 41.6196Z" fill="white" stroke="#1A1A1A" stroke-width="2" stroke-linecap="round" stroke-linejoin="round"/>
<path d="M53 21L53 47" stroke="#1A1A1A" stroke-width="2" stroke-linecap="round" stroke-linejoin="round"/>
<path d="M49 25L53 21L57 25" stroke="#1A1A1A" stroke-width="2" stroke-linecap="round" stroke-linejoin="round"/>
<path d="M27 21L27 47" stroke="#1A1A1A" stroke-width="2" stroke-linecap="round" stroke-linejoin="round"/>
<path d="M23 25L27 21L31 25" stroke="#1A1A1A" stroke-width="2" stroke-linecap="round" stroke-linejoin="round"/>
<path d="M40 16L40 47" stroke="#1A1A1A" stroke-width="2" stroke-linecap="round" stroke-linejoin="round"/>
<path d="M36 20L40 16L44 20" stroke="#1A1A1A" stroke-width="2" stroke-linecap="round" stroke-linejoin="round"/>
</svg>
